<svg version="1.1" id="Camada_1" xmlns="http://www.w3.org/2000/svg" x="0" y="0" viewBox="0 0 244 52.4" xml:space="preserve"><style/><path fill="#84a484" d="M26.8 42.6c-9.4 0-16.1-6.9-16.1-16.3 0-9.6 6.8-16.5 16.1-16.5 9.4 0 16.2 6.9 16.2 16.5 0 9.4-6.8 16.3-16.2 16.3m102.8 7.6h7c.3 0 .5-.2.5-.5V20.9c4.6 5 9.9 7.9 18.2 7.9s14-3.4 18.6-8.4v29.2c0 .3.2.5.5.5h7c.3 0 .5-.2.5-.5V2.8c0-.3-.2-.5-.5-.5h-6.1c-.3 0-.5.2-.6.6-1.6 11-9.7 17.9-19.4 17.9-10 0-17.4-7-19-18-.1-.3-.3-.5-.6-.5h-6.1c-.3 0-.5.2-.5.5v46.9c-.1.3.1.5.5.5m-66.6 0h6.1c.3 0 .5-.2.6-.6 1.6-11 9.7-17.9 19.4-17.9 10 0 17.4 7 19 18 .1.3.3.5.6.5h6.1c.3 0 .5-.2.5-.5V2.8c0-.3-.2-.5-.5-.5h-7c-.3 0-.5.2-.5.5v28.8c-4.6-5-9.9-7.9-18.2-7.9-8.3 0-14 3.4-18.6 8.4V2.8c0-.3-.2-.5-.5-.5h-7c-.3 0-.5.2-.5.5v46.9c0 .3.2.5.5.5m154.4.7c10 0 18.2-5 22.6-13.9.2-.4.1-.7-.3-.7h-8.8c-.5 0-.7.1-1 .5-2.6 3.9-6.9 5.8-12.5 5.8-9.4 0-16.3-6.9-16.3-16.3 0-9.6 7-16.7 16.1-16.7 7.7 0 13.7 5.1 15.2 12.1h-18.9c-.3 0-.5.2-.5.5V29c0 .3.2.5.5.5l27.6.1c.3 0 .5-.1.5-.5l.1-1.3c.5-15.4-10.6-26.3-24.5-26.3-13.8 0-24.4 10.6-24.4 24.7s10.6 24.7 24.6 24.7m-190.6 0c14.1 0 24.7-10.6 24.7-24.6 0-14.1-10.7-24.7-24.7-24.7S2.2 12.2 2.2 26.3c0 14 10.6 24.6 24.6 24.6"/></svg>